<?xml version="1.0" encoding="iso-8859-1"?>
<!-- Generator: Adobe Illustrator 16.0.0, SVG Export Plug-In . SVG Version: 6.00 Build 0)  -->
<!DOCTYPE svg PUBLIC "-//W3C//DTD SVG 1.1//EN" "http://www.w3.org/Graphics/SVG/1.1/DTD/svg11.dtd">
<svg xmlns="http://www.w3.org/2000/svg" xmlns:xlink="http://www.w3.org/1999/xlink" version="1.1" id="Capa_1" x="0px" y="0px" width="512px" height="512px" viewBox="0 0 354.287 354.287" style="enable-background:new 0 0 354.287 354.287;" xml:space="preserve">
<g>
	<path d="M88.924,305.208c5.01,21.515-8.383,43.03-29.903,48.031c-21.522,5.002-43.036-8.381-48.037-29.904   c-5.005-21.521,8.386-43.031,29.911-48.038C62.416,270.295,83.915,283.689,88.924,305.208z M72.268,190.229l-12.883,31.059   c42.648,17.685,73.57,59.36,78.771,106.146l33.412-3.711C165.041,264.937,126.058,212.532,72.268,190.229z M89.721,92.025   L75.3,122.395c80.232,38.116,137.62,116.731,149.762,205.169l33.302-4.574C244.714,223.443,180.088,134.939,89.721,92.025z    M109.646,0L95.223,30.373C214.304,86.925,296.954,203.69,310.917,335.094l33.434-3.562C329.156,188.573,239.224,61.538,109.646,0z   " fill="#c7c7c7"/>
</g>
<g>
</g>
<g>
</g>
<g>
</g>
<g>
</g>
<g>
</g>
<g>
</g>
<g>
</g>
<g>
</g>
<g>
</g>
<g>
</g>
<g>
</g>
<g>
</g>
<g>
</g>
<g>
</g>
<g>
</g>
</svg>
