<?xml version="1.0" encoding="iso-8859-1"?>
<!-- Generator: Adobe Illustrator 19.1.0, SVG Export Plug-In . SVG Version: 6.00 Build 0)  -->
<svg xmlns="http://www.w3.org/2000/svg" xmlns:xlink="http://www.w3.org/1999/xlink" version="1.1" id="Capa_1" x="0px" y="0px" viewBox="0 0 513.32 513.32" style="enable-background:new 0 0 513.32 513.32;" xml:space="preserve" width="512px" height="512px">
<g>
	<g>
		<g>
			<path d="M256.66,64.165c-98.386,0-179.662,72.72-190.356,168.968l42.777,4.278c8.555-72.72,72.72-130.469,147.579-130.469     S395.684,164.69,404.239,239.55l42.777-4.278C436.322,136.885,355.046,64.165,256.66,64.165L256.66,64.165z" fill="#c7c7c7"/>
			<path d="M256.66,299.437L211.744,183.94l-38.499,17.11l42.777,115.497c-14.972,10.694-23.527,27.805-23.527,47.055     c0,36.36,27.805,64.165,64.165,64.165s64.165-27.805,64.165-64.165S293.02,299.437,256.66,299.437L256.66,299.437z      M278.048,384.99h-42.777v-42.777h42.777V384.99z" fill="#c7c7c7"/>
			<path d="M256.66,0C115.497,0,0,115.497,0,256.66s115.497,256.66,256.66,256.66s256.66-115.497,256.66-256.66S397.823,0,256.66,0z      M256.66,470.543c-117.636,0-213.883-96.247-213.883-213.883S139.024,42.777,256.66,42.777s213.883,96.247,213.883,213.883     S374.296,470.543,256.66,470.543z" fill="#c7c7c7"/>
		</g>
	</g>
</g>
<g>
</g>
<g>
</g>
<g>
</g>
<g>
</g>
<g>
</g>
<g>
</g>
<g>
</g>
<g>
</g>
<g>
</g>
<g>
</g>
<g>
</g>
<g>
</g>
<g>
</g>
<g>
</g>
<g>
</g>
</svg>
