<?xml version="1.0" standalone="no"?>
<!DOCTYPE svg PUBLIC "-//W3C//DTD SVG 20010904//EN"
 "http://www.w3.org/TR/2001/REC-SVG-20010904/DTD/svg10.dtd">
<svg version="1.0" xmlns="http://www.w3.org/2000/svg"
 width="16.000000pt" height="16.000000pt" viewBox="0 0 16.000000 16.000000"
 preserveAspectRatio="xMidYMid meet">
<metadata>
Created by potrace 1.11, written by Peter Selinger 2001-2013
</metadata>
<g transform="translate(0.000000,16.000000) scale(0.009143,-0.009143)"
fill="#000000" stroke="none">
<path d="M0 875 l0 -875 875 0 875 0 0 875 0 875 -875 0 -875 0 0 -875z m427
654 c15 -5 200 -182 411 -392 l382 -382 0 333 c0 314 1 335 20 372 23 45 80
80 130 80 50 0 107 -35 130 -80 19 -38 20 -58 20 -577 0 -519 -1 -539 -20
-571 -38 -62 -116 -88 -187 -61 -15 5 -200 182 -410 392 l-383 382 0 -333 c0
-314 -1 -335 -20 -372 -23 -45 -80 -80 -130 -80 -50 0 -107 35 -130 80 -20 39
-20 56 -20 578 1 514 2 540 20 570 38 62 116 88 187 61z"/>
</g>
</svg>
